<svg width="20" height="21" viewBox="0 0 20 21" fill="none" xmlns="http://www.w3.org/2000/svg">
<path d="M6.19332 5.50625C6.19332 5.50625 5.47825 5.98617 5.22461 8.31767C6.56183 10.0493 8.22368 9.76621 8.9554 9.52455C9.02188 9.50213 9.10578 9.39368 9.11019 9.32458C9.20734 7.65976 7.83266 5.44035 7.33746 4.69946C6.93911 4.85819 6.55139 5.11504 6.19332 5.50625Z" fill="#77838F"/>
<path d="M13.2009 1.18261L13.4392 1.91704C13.5961 2.40205 13.6208 2.815 13.5313 3.16026C16.3006 4.48525 18.2227 7.30619 18.2227 10.5748C18.2227 15.1095 14.5337 18.7983 9.99939 18.7983C9.95101 18.7983 9.90351 18.7915 9.85571 18.7906L9.84251 18.484C9.83639 18.347 9.93568 18.1966 10.064 18.1488L11.6551 17.5518C11.6551 17.5518 12.4013 17.5935 12.7118 17.0334C12.8689 16.751 13.0151 16.5537 13.1222 16.4265C13.21 16.3218 13.2089 16.1726 13.1102 16.077C12.7854 15.7624 12.1316 15.0735 12.0698 14.547C11.9867 13.8422 10.9925 13.2617 9.70712 13.1791C9.70712 13.1791 9.02466 12.6544 8.97875 11.7489C8.97143 11.6117 8.86894 11.4753 8.73564 11.5084C8.39208 11.5926 7.80914 12.0338 7.78017 14.0478C7.78017 14.0478 5.95513 14.9727 5.78505 17.6232C5.63976 17.5362 5.49423 17.4504 5.35487 17.3543C5.4212 16.5487 5.62481 15.9069 5.86332 15.4225C6.33673 14.46 7.00134 13.9249 7.34034 13.699C7.41337 11.711 8.05847 11.1302 8.59715 10.9972C8.76257 10.9564 8.9362 10.9918 9.07377 11.0946C9.23041 11.2112 9.33013 11.4032 9.34075 11.6096C9.36841 12.1438 9.68422 12.5188 9.83411 12.6679C10.0768 12.6903 10.3087 12.7291 10.5266 12.7821L10.547 12.5945L10.7134 10.9751C10.7417 10.7019 10.9877 10.4711 11.2595 10.4324C12.2919 10.282 14.5925 9.67035 14.7422 7.18492C14.7587 6.91041 14.5277 6.63474 14.2605 6.56972L12.0705 6.03501C12.0705 6.03501 12.008 5.50642 11.3865 5.28913C10.9336 5.13025 9.37327 4.23409 7.83826 4.55023C8.41858 5.43368 9.70969 7.61136 9.60769 9.35324C9.59241 9.62726 9.37453 9.91016 9.11298 9.99644C8.86156 10.0798 8.40989 10.1962 7.86102 10.1962C7.06588 10.1962 6.06737 9.9518 5.16761 9.01147C5.14994 9.30995 5.13985 9.63338 5.13815 9.98286C5.12796 11.7863 2.83731 13.4961 2.83731 13.4961L2.56373 14.0625C2.06469 13.0017 1.77718 11.8229 1.77718 10.5748C1.77718 7.22268 3.7956 4.3373 6.6786 3.05822C6.61871 2.73324 6.64768 2.35639 6.79011 1.9167L7.05802 1.09473C3.01671 2.3511 0.074707 6.12546 0.074707 10.5749C0.074707 16.0473 4.52726 20.5 9.99988 20.5C15.4725 20.5 19.9249 16.0473 19.9249 10.5749C19.9244 6.22218 17.1071 2.51779 13.2009 1.18261ZM11.1257 14.6704C11.2802 14.6704 11.4057 14.7952 11.4057 14.9503C11.4057 15.1052 11.2802 15.2301 11.1257 15.2301C10.9713 15.2301 10.846 15.1053 10.846 14.9503C10.846 14.7952 10.9713 14.6704 11.1257 14.6704ZM10.846 6.58762C11.0009 6.58762 11.1257 6.71262 11.1257 6.86742C11.1257 7.02222 11.001 7.14702 10.846 7.14702C10.6909 7.14702 10.5659 7.02226 10.5659 6.86742C10.5661 6.71262 10.6916 6.58762 10.846 6.58762Z" fill="#77838F"/>
<ellipse cx="10.0002" cy="10.34" rx="8.8" ry="8.88" stroke="#77838F" stroke-width="2"/>
</svg>
