<svg width="16" height="24" viewBox="0 0 16 24" fill="none" xmlns="http://www.w3.org/2000/svg">
<path d="M6.45813 16.507C6.80072 16.7851 7.16528 17.081 7.54852 17.4009C7.67889 17.5095 7.83893 17.5637 7.99896 17.5637C8.15881 17.5637 8.31885 17.5095 8.44922 17.4009C8.83173 17.0815 9.19647 16.7856 9.53906 16.5075C11.5029 14.9139 12.9221 13.7618 12.9221 12.0293C12.9221 10.3998 11.6862 9.12415 10.1089 9.12415C9.10584 9.12415 8.43219 9.61707 7.99878 10.1431C7.56629 9.61707 6.89337 9.12415 5.8894 9.12415C4.31232 9.12415 3.07617 10.3998 3.07617 12.0293C3.07635 13.7618 4.49487 14.9132 6.45813 16.507Z" fill="#77838F"/>
<path d="M12.9219 6.01886V2.46094C12.9219 1.88434 12.4438 1.40625 11.8672 1.40625C11.2906 1.40625 10.8125 1.88434 10.8125 2.46094V7.78821C11.0778 7.83234 11.3316 7.90192 11.5768 7.99274C11.7163 7.14716 12.2153 6.4259 12.9219 6.01886Z" fill="#77838F"/>
<path d="M9.40625 7.81036V1.05469C9.40625 0.478088 8.92816 0 8.35156 0C7.77496 0 7.29688 0.478088 7.29688 1.05469V7.99255C7.53693 8.08044 7.77954 8.16211 7.99927 8.29614C8.42645 8.03558 8.90637 7.89478 9.40625 7.81036Z" fill="#77838F"/>
<path d="M14.3281 7.03125C13.5547 7.03125 12.9219 7.66406 12.9219 8.4375V8.81268C13.783 9.59674 14.3281 10.7313 14.3281 12.0293C14.3281 14.432 12.5194 15.9 10.4252 17.5994C10.2863 17.7123 10.1288 17.8427 9.98267 17.9619C9.90192 18.084 9.79242 18.1811 9.65234 18.2327C9.54907 18.3177 9.45605 18.3918 9.34985 18.4803C8.97009 18.7969 8.49091 18.9699 7.99854 18.9699C7.50635 18.9699 7.02698 18.7969 6.64941 18.4823C6.26892 18.1644 5.90912 17.8733 5.57129 17.5986C3.47766 15.8985 1.66986 14.4311 1.66986 12.0293C1.66986 11.1273 1.92877 10.2991 2.375 9.61414V5.27344C2.375 4.69684 1.89691 4.21875 1.32031 4.21875C0.743713 4.21875 0.265625 4.69684 0.265625 5.27344V15.4688H0.307922C0.490662 17.5358 1.46094 19.4062 3.07812 20.7281V23.2969C3.07812 23.6906 3.38739 24 3.78125 24H12.2188C12.6126 24 12.9219 23.6906 12.9219 23.2969V20.7281C14.7079 19.2515 15.7344 17.1 15.7344 14.7656V8.4375C15.7344 7.66406 15.1016 7.03125 14.3281 7.03125Z" fill="#77838F"/>
<path d="M5.89062 7.71808V2.46094C5.89062 1.88434 5.41254 1.40625 4.83594 1.40625C4.25934 1.40625 3.78125 1.88434 3.78125 2.46094V8.29852C4.40033 7.93835 5.11206 7.7179 5.88934 7.7179C5.88971 7.7179 5.89008 7.71808 5.89062 7.71808Z" fill="#77838F"/>
</svg>