<svg width="21" height="16" viewBox="0 0 21 16" fill="none" xmlns="http://www.w3.org/2000/svg">
<path d="M18.8011 0H2.35393C2.08395 0 1.8312 0.0663734 1.60254 0.175774L10.5385 9.11178L12.5414 7.18695C12.5414 7.18695 12.5416 7.18676 12.5416 7.18668C12.5416 7.1866 12.5418 7.18652 12.5418 7.18652L19.5528 0.17593C19.3241 0.0664513 19.0712 0 18.8011 0Z" fill="#77838F"/>
<path d="M20.3794 1.00281L13.7817 7.60015L20.3792 14.1976C20.4886 13.969 20.555 13.7162 20.555 13.4462V1.75392C20.555 1.4841 20.4888 1.23139 20.3794 1.00281Z" fill="#77838F"/>
<path d="M0.775872 1.00244C0.666471 1.2311 0.600098 1.48385 0.600098 1.75383V13.4461C0.600098 13.716 0.666393 13.9687 0.775716 14.1973L7.37341 7.59998L0.775872 1.00244Z" fill="#77838F"/>
<path d="M12.9548 8.42684L10.9517 10.3519C10.8375 10.4661 10.6879 10.5232 10.5384 10.5232C10.3888 10.5232 10.2392 10.4661 10.125 10.3519L8.19987 8.42676L1.60205 15.0241C1.83075 15.1336 2.08366 15.2001 2.35371 15.2001H18.8009C19.0709 15.2001 19.3236 15.1337 19.5523 15.0243L12.9548 8.42684Z" fill="#77838F"/>
</svg>
