<svg width="28" height="29" viewBox="0 0 28 29" fill="none" xmlns="http://www.w3.org/2000/svg">
<path d="M16.5847 10.2501L23.4743 3.20031L19.8179 3.20026C19.1952 3.20031 18.6902 2.68375 18.6903 2.04644C18.6903 1.40919 19.1951 0.89263 19.8179 0.892629L26.1966 0.892629C26.8193 0.892575 27.3241 1.40919 27.3241 2.04644L27.3241 8.57346C27.3241 9.21071 26.8193 9.72727 26.1966 9.72727C25.5738 9.72733 25.069 9.21071 25.069 8.57346L25.069 4.83206L18.1787 11.8826C21.3637 15.9561 21.1132 21.9338 17.4259 25.7069C13.4397 29.7858 6.97755 29.8102 3.0207 25.7613C-0.946889 21.7015 -0.945826 15.0255 3.0207 10.9668C6.71007 7.19158 12.5771 6.95824 16.5847 10.2501ZM4.61537 24.1296C7.69292 27.2787 12.7243 27.2543 15.8312 24.0752C18.9088 20.9261 18.9088 15.802 15.8312 12.6529C12.7244 9.47381 7.69292 9.44939 4.61537 12.5985C1.50848 15.7777 1.50853 20.9505 4.61537 24.1296Z" fill="#0DE18C"/>
</svg>
