<svg width="58" height="17" viewBox="0 0 58 17" fill="none" xmlns="http://www.w3.org/2000/svg">
<path d="M0.462891 7.93935L2.23386 7.05341V1.91497H4.29999V6.0225L6.26774 5.03991L6.92365 6.37688L4.29999 7.69773V11.322H9.41613V13.0778H2.23386V8.72864L1.1352 9.27631L0.462891 7.93935Z" fill="#1E2022"/>
<path d="M14.5193 11.7086C15.1315 11.7086 15.5961 11.6764 15.9131 11.612V9.4535C15.8038 9.42128 15.6453 9.38907 15.4376 9.35685C15.2299 9.32464 15.0003 9.30853 14.7489 9.30853C14.5303 9.30853 14.3062 9.32464 14.0766 9.35685C13.8579 9.38907 13.6557 9.44813 13.4699 9.53404C13.295 9.61995 13.1528 9.74344 13.0435 9.90452C12.9342 10.0549 12.8795 10.2482 12.8795 10.4844C12.8795 10.9462 13.0271 11.2683 13.3223 11.4509C13.6174 11.6227 14.0165 11.7086 14.5193 11.7086ZM14.3554 4.44392C15.0113 4.44392 15.5633 4.52446 16.0115 4.68554C16.4597 4.84662 16.815 5.07213 17.0774 5.36207C17.3507 5.65202 17.542 6.00639 17.6513 6.4252C17.7716 6.83327 17.8317 7.28429 17.8317 7.77827V12.8845C17.5256 12.9489 17.061 13.0241 16.4379 13.11C15.8257 13.2067 15.1315 13.255 14.3554 13.255C13.8416 13.255 13.3715 13.2067 12.9451 13.11C12.5188 13.0134 12.1526 12.8577 11.8465 12.6429C11.5513 12.4281 11.3163 12.1489 11.1414 11.8053C10.9774 11.4616 10.8954 11.0375 10.8954 10.5327C10.8954 10.0495 10.9883 9.64143 11.1742 9.30853C11.3709 8.97563 11.6333 8.70716 11.9613 8.50313C12.2892 8.28836 12.6664 8.13801 13.0927 8.0521C13.53 7.95546 13.9837 7.90713 14.4537 7.90713C14.6724 7.90713 14.9019 7.92324 15.1424 7.95546C15.383 7.97693 15.6398 8.01989 15.9131 8.08432V7.76216C15.9131 7.53665 15.8858 7.32188 15.8312 7.11784C15.7765 6.91381 15.6781 6.73662 15.536 6.58628C15.4048 6.4252 15.2244 6.3017 14.9949 6.2158C14.7762 6.12989 14.4975 6.08693 14.1586 6.08693C13.6994 6.08693 13.2786 6.11915 12.8959 6.18358C12.5133 6.24801 12.2018 6.32318 11.9613 6.40909L11.7153 4.83051C11.9667 4.7446 12.3329 4.65869 12.8139 4.57278C13.295 4.48687 13.8088 4.44392 14.3554 4.44392Z" fill="#1E2022"/>
<path d="M26.5665 8.90583C26.5665 8.036 26.3643 7.35946 25.9598 6.87622C25.5662 6.39298 24.9267 6.15136 24.0412 6.15136C23.8554 6.15136 23.6586 6.1621 23.4509 6.18358C23.2541 6.19432 23.0574 6.22653 22.8606 6.28023V11.0965C23.0355 11.2146 23.2651 11.3274 23.5493 11.4348C23.8445 11.5314 24.156 11.5798 24.484 11.5798C25.2055 11.5798 25.7302 11.3381 26.0582 10.8549C26.3971 10.3717 26.5665 9.72197 26.5665 8.90583ZM28.5999 8.87361C28.5999 9.51793 28.5124 10.1086 28.3375 10.6455C28.1735 11.1824 27.933 11.6442 27.616 12.0308C27.299 12.4174 26.8999 12.718 26.4189 12.9328C25.9489 13.1476 25.4132 13.255 24.8119 13.255C24.4075 13.255 24.0358 13.2067 23.6969 13.11C23.358 13.0134 23.0792 12.906 22.8606 12.7879V16.0578H20.8765V4.92716C21.2809 4.81977 21.7783 4.71775 22.3687 4.62111C22.959 4.52446 23.5821 4.47613 24.238 4.47613C24.9158 4.47613 25.5225 4.57815 26.0582 4.78219C26.5938 4.98622 27.0475 5.28153 27.4192 5.66812C27.8018 6.04398 28.0915 6.50574 28.2883 7.05341C28.496 7.59034 28.5999 8.19708 28.5999 8.87361Z" fill="#1E2022"/>
<path d="M36.9497 8.90583C36.9497 8.036 36.7475 7.35946 36.343 6.87622C35.9494 6.39298 35.3099 6.15136 34.4244 6.15136C34.2386 6.15136 34.0418 6.1621 33.8341 6.18358C33.6373 6.19432 33.4406 6.22653 33.2438 6.28023V11.0965C33.4187 11.2146 33.6483 11.3274 33.9325 11.4348C34.2277 11.5314 34.5392 11.5798 34.8672 11.5798C35.5887 11.5798 36.1134 11.3381 36.4414 10.8549C36.7803 10.3717 36.9497 9.72197 36.9497 8.90583ZM38.983 8.87361C38.983 9.51793 38.8956 10.1086 38.7207 10.6455C38.5567 11.1824 38.3162 11.6442 37.9992 12.0308C37.6821 12.4174 37.2831 12.718 36.8021 12.9328C36.332 13.1476 35.7964 13.255 35.1951 13.255C34.7906 13.255 34.419 13.2067 34.0801 13.11C33.7412 13.0134 33.4624 12.906 33.2438 12.7879V16.0578H31.2596V4.92716C31.6641 4.81977 32.1615 4.71775 32.7518 4.62111C33.3422 4.52446 33.9653 4.47613 34.6212 4.47613C35.299 4.47613 35.9057 4.57815 36.4414 4.78219C36.977 4.98622 37.4307 5.28153 37.8024 5.66812C38.185 6.04398 38.4747 6.50574 38.6715 7.05341C38.8792 7.59034 38.983 8.19708 38.983 8.87361Z" fill="#1E2022"/>
<path d="M43.627 7.93935C43.8784 7.68162 44.1462 7.40779 44.4305 7.11784C44.7147 6.81716 44.9935 6.52185 45.2668 6.2319C45.5401 5.93122 45.797 5.64665 46.0375 5.37818C46.2889 5.09898 46.5021 4.85736 46.677 4.65332H49.0219C48.4753 5.25469 47.8959 5.87753 47.2837 6.52185C46.6824 7.16617 46.0757 7.79438 45.4635 8.40648C45.7915 8.67495 46.1358 9.00248 46.4966 9.38907C46.8573 9.76492 47.2072 10.1676 47.5461 10.5972C47.8849 11.0267 48.202 11.4563 48.4971 11.8858C48.7923 12.3154 49.0383 12.7127 49.235 13.0778H46.9393C46.7426 12.7449 46.513 12.3959 46.2506 12.0308C45.9992 11.6657 45.7259 11.3113 45.4307 10.9676C45.1356 10.624 44.8349 10.3019 44.5288 10.0012C44.2228 9.68975 43.9221 9.42665 43.627 9.21188V13.0778H41.6428V0.900162L43.627 0.578003V7.93935Z" fill="#1E2022"/>
<path d="M54.3066 11.7086C54.9188 11.7086 55.3834 11.6764 55.7004 11.612V9.4535C55.5911 9.42128 55.4326 9.38907 55.2249 9.35685C55.0172 9.32464 54.7876 9.30853 54.5362 9.30853C54.3175 9.30853 54.0934 9.32464 53.8639 9.35685C53.6452 9.38907 53.443 9.44813 53.2571 9.53404C53.0822 9.61995 52.9401 9.74344 52.8308 9.90452C52.7215 10.0549 52.6668 10.2482 52.6668 10.4844C52.6668 10.9462 52.8144 11.2683 53.1095 11.4509C53.4047 11.6227 53.8037 11.7086 54.3066 11.7086ZM54.1426 4.44392C54.7985 4.44392 55.3506 4.52446 55.7988 4.68554C56.247 4.84662 56.6023 5.07213 56.8647 5.36207C57.138 5.65202 57.3293 6.00639 57.4386 6.4252C57.5588 6.83327 57.619 7.28429 57.619 7.77827V12.8845C57.3129 12.9489 56.8483 13.0241 56.2251 13.11C55.613 13.2067 54.9188 13.255 54.1426 13.255C53.6288 13.255 53.1587 13.2067 52.7324 13.11C52.3061 13.0134 51.9398 12.8577 51.6337 12.6429C51.3386 12.4281 51.1035 12.1489 50.9286 11.8053C50.7647 11.4616 50.6827 11.0375 50.6827 10.5327C50.6827 10.0495 50.7756 9.64143 50.9614 9.30853C51.1582 8.97563 51.4206 8.70716 51.7485 8.50313C52.0765 8.28836 52.4536 8.13801 52.88 8.0521C53.3173 7.95546 53.7709 7.90713 54.241 7.90713C54.4596 7.90713 54.6892 7.92324 54.9297 7.95546C55.1702 7.97693 55.4271 8.01989 55.7004 8.08432V7.76216C55.7004 7.53665 55.6731 7.32188 55.6184 7.11784C55.5638 6.91381 55.4654 6.73662 55.3233 6.58628C55.1921 6.4252 55.0117 6.3017 54.7821 6.2158C54.5635 6.12989 54.2847 6.08693 53.9458 6.08693C53.4867 6.08693 53.0658 6.11915 52.6832 6.18358C52.3006 6.24801 51.989 6.32318 51.7485 6.40909L51.5026 4.83051C51.754 4.7446 52.1202 4.65869 52.6012 4.57278C53.0822 4.48687 53.596 4.44392 54.1426 4.44392Z" fill="#1E2022"/>
</svg>
