<svg width="37" height="36" viewBox="0 0 37 36" fill="none" xmlns="http://www.w3.org/2000/svg">
<path d="M30.0778 31.6899C26.9034 34.3266 22.7854 36 18.3027 36C11.6323 36 5.77681 32.386 2.60254 27.1125L3.79092 21.725L9.05847 20.7633C10.281 24.6445 13.97 27.4922 18.3027 27.4922C20.4045 27.4922 22.3564 26.8383 23.965 25.6782L29.0268 26.4375L30.0778 31.6899Z" fill="#43BE8D"/>
<path d="M8.6508 18C8.6508 18.9702 8.80094 19.8983 9.05832 20.7632L2.60239 27.1125C0.99377 24.4546 0 21.3327 0 18C0 14.6671 0.99377 11.5453 2.60239 8.88745L7.78379 9.76446L9.05832 15.2367C8.80094 16.1014 8.6508 17.0296 8.6508 18Z" fill="#43BE8D"/>
<path d="M26.946 22.2188C26.2596 23.6109 25.2085 24.7921 23.9647 25.6781L30.0773 31.6898C34.0239 28.3992 36.6048 23.4844 36.6048 18C36.6048 16.882 36.4975 15.743 36.283 14.646C36.1972 14.1398 35.7468 13.7812 35.232 13.7812H18.3022V22.2188H26.946Z" fill="#43BE8D"/>
<path d="M30.378 5.02727C30.3995 5.32259 30.2708 5.59687 30.0778 5.80774L25.4878 10.3007C25.1233 10.6804 24.5227 10.7226 24.0938 10.4062C22.3992 9.16172 20.4045 8.50781 18.3027 8.50781C13.97 8.50781 10.281 11.3554 9.05847 15.2367L2.60254 8.8875C5.77681 3.61406 11.6323 0 18.3027 0C22.5709 0 26.7318 1.54688 29.992 4.2468C30.2279 4.43672 30.3566 4.73196 30.378 5.02727Z" fill="#43BE8D"/>
<path d="M24.0933 10.4062C24.5223 10.7227 25.1227 10.6804 25.4874 10.3007L30.0773 5.80774C30.2704 5.59687 30.3991 5.32266 30.3776 5.02727C30.356 4.73189 30.2274 4.43672 29.9915 4.2468C26.7314 1.54688 22.5705 0 18.3022 0V8.50781C20.4041 8.50781 22.3988 9.16172 24.0933 10.4062Z" fill="#43BE8D"/>
</svg>
